<?xml version="1.0" encoding="utf-8"?>
<!-- Generator: Adobe Illustrator 22.1.0, SVG Export Plug-In . SVG Version: 6.00 Build 0)  -->
<svg version="1.1" id="Layer_1" xmlns="http://www.w3.org/2000/svg" xmlns:xlink="http://www.w3.org/1999/xlink" x="0px" y="0px"
	 viewBox="0 0 542.8 120.4" style="enable-background:new 0 0 542.8 120.4;" xml:space="preserve">
<style type="text/css">
	.st0{fill:none;}
	.st1{fill:#231F20;}
	.st2{fill:#FF5F00;}
	.st3{fill:#EB001B;}
	.st4{fill:#F79E1B;}
	.st5{font-family:'Lato-Bold';}
	.st6{font-size:48px;}
</style>
<title>mc_vrt_rgb_pos</title>
<g id="Layer_2_1_">
	<g id="Layer_1-2">
		<rect x="-0.8" class="st0" width="146.8" height="120.4"/>
		<path class="st1" d="M35.6,105.3v-6c0.1-2-1.3-3.7-3.3-3.8c-0.2,0-0.3,0-0.5,0c-1.3-0.1-2.6,0.6-3.4,1.7c-0.7-1.1-1.9-1.8-3.2-1.7
			c-1.1-0.1-2.2,0.5-2.8,1.4v-1.2h-2.1v9.6h2.1V100c-0.2-1.2,0.7-2.4,1.9-2.5c0.1,0,0.3,0,0.4,0c1.4,0,2.1,0.9,2.1,2.5v5.3H29V100
			c-0.2-1.2,0.7-2.4,1.9-2.5c0.1,0,0.3,0,0.4,0c1.4,0,2.1,0.9,2.1,2.5v5.3L35.6,105.3z M66.6,95.7h-3.4v-2.9h-2.1v2.9h-1.9v1.9h1.9
			v4.4c0,2.2,0.9,3.5,3.3,3.5c0.9,0,1.8-0.3,2.6-0.7l-0.6-1.8c-0.6,0.3-1.2,0.5-1.8,0.5c-1,0-1.4-0.6-1.4-1.6v-4.4h3.4L66.6,95.7z
			 M84.4,95.5c-1,0-2,0.5-2.5,1.4v-1.2h-2.1v9.6h2.1v-5.4c0-1.6,0.7-2.5,2-2.5c0.4,0,0.9,0.1,1.3,0.2l0.6-2
			C85.4,95.5,84.9,95.4,84.4,95.5L84.4,95.5z M57.6,96.5c-1.2-0.7-2.5-1-3.9-1c-2.4,0-4,1.2-4,3.1c0,1.6,1.2,2.5,3.3,2.8l1,0.1
			c1.1,0.2,1.7,0.5,1.7,1c0,0.7-0.8,1.2-2.2,1.2c-1.1,0-2.3-0.3-3.2-1l-1,1.6c1.2,0.8,2.7,1.3,4.1,1.2c2.8,0,4.4-1.3,4.4-3.1
			s-1.3-2.6-3.3-2.9l-1-0.1c-0.9-0.1-1.6-0.3-1.6-0.9s0.7-1.1,1.8-1.1c1.1,0,2.1,0.3,3,0.8L57.6,96.5z M113.3,95.5
			c-1,0-2,0.5-2.5,1.4v-1.2h-2.1v9.6h2.1v-5.4c0-1.6,0.7-2.5,2-2.5c0.4,0,0.9,0.1,1.3,0.2l0.6-2C114.2,95.5,113.7,95.4,113.3,95.5
			L113.3,95.5z M86.5,100.5c-0.1,2.7,2,4.9,4.6,5c0.2,0,0.3,0,0.5,0c1.2,0.1,2.5-0.3,3.4-1.1l-1-1.7c-0.7,0.5-1.6,0.8-2.5,0.9
			c-1.7-0.1-2.9-1.6-2.8-3.3c0.1-1.5,1.3-2.7,2.8-2.8c0.9,0,1.8,0.3,2.5,0.9l1-1.7c-1-0.8-2.2-1.2-3.4-1.1c-2.7-0.2-4.9,1.9-5.1,4.5
			C86.5,100.1,86.5,100.3,86.5,100.5L86.5,100.5z M106,100.5v-4.8h-2.1v1.2c-0.7-0.9-1.8-1.4-3-1.4c-2.8,0-5,2.2-5,5s2.2,5,5,5
			c1.2,0,2.3-0.5,3-1.4v1.2h2.1V100.5z M98.2,100.5c0.1-1.6,1.5-2.8,3.1-2.7s2.8,1.5,2.7,3.1c-0.1,1.5-1.3,2.7-2.9,2.7
			c-1.6,0-2.9-1.2-2.9-2.8C98.2,100.6,98.2,100.5,98.2,100.5z M73.1,95.5c-2.8,0-5,2.3-4.9,5.1s2.3,5,5.1,4.9l0,0
			c1.4,0.1,2.9-0.4,4-1.3l-1-1.5c-0.8,0.6-1.8,1-2.8,1c-1.4,0.1-2.7-0.9-2.9-2.3h7.1c0-0.3,0-0.5,0-0.8
			C77.7,97.5,75.8,95.5,73.1,95.5L73.1,95.5z M73.1,97.3c1.3,0,2.4,1,2.4,2.3c0,0,0,0,0,0h-5C70.6,98.3,71.7,97.3,73.1,97.3
			L73.1,97.3z M125.2,100.5v-8.6h-2v5c-0.7-0.9-1.8-1.4-3-1.4c-2.8,0-5,2.2-5,5s2.2,5,5,5c1.2,0,2.3-0.5,3-1.4v1.2h2V100.5z
			 M128.7,103.9c0.1,0,0.3,0,0.4,0.1c0.1,0,0.2,0.1,0.3,0.2c0.1,0.1,0.2,0.2,0.2,0.3c0.1,0.2,0.1,0.5,0,0.7
			c-0.1,0.1-0.1,0.2-0.2,0.3c-0.1,0.1-0.2,0.2-0.3,0.2c-0.1,0.1-0.2,0.1-0.4,0.1c-0.4,0-0.7-0.2-0.9-0.6c-0.1-0.2-0.1-0.5,0-0.7
			c0.1-0.1,0.1-0.2,0.2-0.3c0.1-0.1,0.2-0.2,0.3-0.2C128.4,103.9,128.6,103.9,128.7,103.9L128.7,103.9z M128.7,105.6
			c0.1,0,0.2,0,0.3-0.1c0.1,0,0.2-0.1,0.2-0.2c0.3-0.3,0.3-0.7,0-1c-0.1-0.1-0.1-0.1-0.2-0.2c-0.1,0-0.2-0.1-0.3-0.1
			c-0.1,0-0.2,0-0.3,0.1c-0.1,0-0.2,0.1-0.2,0.2c-0.3,0.3-0.3,0.7,0,1c0.1,0.1,0.2,0.1,0.2,0.2C128.5,105.5,128.6,105.6,128.7,105.6
			L128.7,105.6z M128.8,104.4c0.1,0,0.2,0,0.3,0.1c0.1,0.1,0.1,0.1,0.1,0.2c0,0.1,0,0.1-0.1,0.2c-0.1,0.1-0.1,0.1-0.2,0.1l0.3,0.3
			h-0.2l-0.3-0.3h-0.1v0.3h-0.2v-0.9L128.8,104.4z M128.5,104.5v0.2h0.2c0,0,0.1,0,0.1,0c0,0,0-0.1,0-0.1c0,0,0-0.1,0-0.1
			c0,0-0.1,0-0.1,0L128.5,104.5z M117.5,100.5c0.1-1.6,1.5-2.8,3.1-2.7s2.8,1.5,2.7,3.1c-0.1,1.5-1.3,2.7-2.9,2.7
			c-1.6,0-2.9-1.2-2.9-2.8C117.5,100.6,117.5,100.6,117.5,100.5z M47.3,100.5v-4.8h-2.1v1.2c-0.7-0.9-1.8-1.4-3-1.4
			c-2.8,0-5,2.2-5,5s2.2,5,5,5c1.2,0,2.3-0.5,3-1.4v1.2h2.1L47.3,100.5z M39.6,100.5c0.1-1.6,1.5-2.8,3.1-2.7s2.8,1.5,2.7,3.1
			c-0.1,1.5-1.3,2.7-2.9,2.7c-1.6,0-2.9-1.2-2.9-2.8C39.5,100.6,39.5,100.6,39.6,100.5L39.6,100.5z"/>
		<g id="_Group_">
			<rect x="56.9" y="22.9" class="st2" width="31.5" height="56.6"/>
			<path id="_Path_" class="st3" d="M58.9,51.2c0-11,5.1-21.5,13.8-28.3C57,10.6,34.4,13.3,22.1,28.9s-9.6,38.3,6.1,50.5
				c13.1,10.3,31.4,10.3,44.5,0C63.9,72.6,58.9,62.2,58.9,51.2z"/>
			<path class="st4" d="M130.9,51.2c0,19.9-16.1,36-36,36c-8.1,0-15.9-2.7-22.2-7.7C88.3,67.2,91,44.5,78.7,28.9
				c-1.8-2.3-3.8-4.3-6.1-6.1c15.6-12.3,38.3-9.6,50.6,6.1C128.2,35.2,130.9,43.1,130.9,51.2L130.9,51.2z"/>
			<path class="st4" d="M127.4,73.5v-1.2h0.5v-0.2h-1.2v0.2h0.5v1.2L127.4,73.5z M129.7,73.5v-1.4h-0.4l-0.4,1l-0.4-1h-0.3v1.4h0.3
				v-1l0.4,0.9h0.3l0.4-0.9v1.1L129.7,73.5z"/>
		</g>
	</g>
</g>
<text transform="matrix(1 0 0 1 156.9505 76.5489)" class="st5 st6">Instant Checkout</text>
</svg>
